PathFileType	4	(X/Y/Z)	C:/Users/opensim2020/Desktop/walking_exp_matlab/subject03_walking17_run.trc																																																																																																																																																				
DataRate	CameraRate	NumFrames	NumMarkers	Units	OrigDataRate	OrigDataStartFrame	OrigNumFrames																																																																																																																																																
100	100	7	50	mm	100	220	132																																																																																																																																																
Frame#	Time	RTOE			LTHI			RWRB			LTIB			RELB			RUPA			RKNE			RTHI			RASI			RFRM			RWRA			RSHO			STRN			LFRM			CLAV			LWRB			LASI			RFHD			LFIN			LSHO			RTIB			LWRA			RBHD			LHEE			RANK			RHEE			C7			RFIN			LBHD			LUPA			LTOE			RBAK			LELB			LFHD			RPSI			LPSI			T10			LKNE			LANK			*39			*40			*41			*42			*43			*44			*45			*46			*47			*48			*49		
		X1	Y1	Z1	X2	Y2	Z2	X3	Y3	Z3	X4	Y4	Z4	X5	Y5	Z5	X6	Y6	Z6	X7	Y7	Z7	X8	Y8	Z8	X9	Y9	Z9	X10	Y10	Z10	X11	Y11	Z11	X12	Y12	Z12	X13	Y13	Z13	X14	Y14	Z14	X15	Y15	Z15	X16	Y16	Z16	X17	Y17	Z17	X18	Y18	Z18	X19	Y19	Z19	X20	Y20	Z20	X21	Y21	Z21	X22	Y22	Z22	X23	Y23	Z23	X24	Y24	Z24	X25	Y25	Z25	X26	Y26	Z26	X27	Y27	Z27	X28	Y28	Z28	X29	Y29	Z29	X30	Y30	Z30	X31	Y31	Z31	X32	Y32	Z32	X33	Y33	Z33	X34	Y34	Z34	X35	Y35	Z35	X36	Y36	Z36	X37	Y37	Z37	X38	Y38	Z38	X39	Y39	Z39	X40	Y40	Z40	X41	Y41	Z41	X42	Y42	Z42	X43	Y43	Z43	X44	Y44	Z44	X45	Y45	Z45	X46	Y46	Z46	X47	Y47	Z47	X48	Y48	Z48	X49	Y49	Z49	X50	Y50	Z50
																																																																																																																																																							
17	0.16	-1961.64319	174.8822	233.32607	-1283.21594	620.38708	36.85588	-1183.81604	948.69751	347.66232	-1196.99927	276.58179	88.5788	-1343.68457	1055.18408	463.22299	-1349.55933	1153.849	456.85156	-1516.49634	420.25528	316.47379	-1460.25	593.05072	359.82739	-1313.11609	874.91351	340.0148	-1252.90344	997.84186	398.57544	-1187.95496	993.76807	319.51157	-1300.36328	1346.17627	350.87662	-1226.88245	1122.06873	200.15143	-1426.18115	1065.07141	-62.49762	-1255.04395	1294.13721	199.12433	-1377.21765	962.31189	-39.2925	-1307.29285	889.13055	113.55161	-1281.37463	1577.40002	287.61267	-1411.90027	881.71301	-6.11359	-1301.09058	1343.52148	53.44965	-1706.20874	364.32755	313.60956	-1380.18542	975.56049	16.89686	-1387.48718	1506.13245	264.79572	-1218.88525	44.17417	193.78271	-1913.34448	311.21957	269.59866	-1935.63196	356.23083	218.4476	-1379.32739	1368.74634	194.69719	-1121.00549	949.89075	308.89651	-1368.82129	1513.67383	136.13274	-1414.39124	1238.83557	-65.15874	-1032.70898	36.40814	154.87827	-1428.51025	1214.13599	309.05624	-1482.83459	1155.73145	-99.67372	-1257.44348	1585.44885	157.10507	-1458.92651	942.49731	301.78317	-1462.65125	934.41437	150.34117	-1445.6958	1073.0293	224.40704	-1181.15662	477.30991	67.44955	-1188.59863	72.5829	147.64642	NaN	NaN	NaN	NaN	NaN	NaN	-1359.67627	1619.61292	196.03989	NaN	NaN	NaN	NaN	NaN	NaN	NaN	NaN	NaN	NaN	NaN	NaN	NaN	NaN	NaN	NaN	NaN	NaN	NaN	NaN	NaN	NaN	NaN	NaN
18	0.17	-1918.20923	190.42136	236.56902	-1251.13135	619.64844	39.36196	-1160.49121	923.69836	354.45328	-1178.83862	272.91681	90.56176	-1315.96143	1048.07715	460.15948	-1320.61938	1147.22607	455.20789	-1463.86584	409.23807	318.36609	-1416.35986	584.71881	361.1608	-1279.01294	872.02618	340.06775	-1227.00916	980.17389	401.21942	-1160.90186	967.0177	324.13385	-1269.08264	1340.94043	351.18063	-1193.83301	1117.66724	201.38074	-1381.40552	1051.09766	-61.5905	-1221.7937	1289.7251	199.62939	-1330.99695	950.16412	-35.63249	-1274.76599	887.1875	112.6954	-1249.89343	1573.51294	287.5072	-1362.82544	868.46979	-1.13924	-1266.01965	1337.3772	52.24417	-1653.66956	362.54492	314.60614	-1336.00415	963.98407	20.29193	-1355.40356	1501.2478	264.64725	-1219.73169	41.59095	198.27698	-1863.57654	323.88177	272.42593	-1884.45068	370.33182	221.34427	-1345.99097	1364.38196	193.63191	-1097.50244	917.25586	317.00797	-1336.60815	1508.66296	135.96942	-1373.74866	1225.64539	-67.04813	-1033.0769	35.96004	159.25719	-1397.24036	1210.25623	306.77875	-1437.67065	1139.76611	-100.8846	-1225.84033	1581.51929	156.9444	-1426.41736	936.19312	303.22668	-1431.44031	930.18604	152.34729	-1413.08691	1068.58289	224.61325	-1150.01184	473.45895	66.86562	-1187.35266	70.96268	152.90164	NaN	NaN	NaN	NaN	NaN	NaN	-1328.15259	1614.78589	195.63121	NaN	NaN	NaN	NaN	NaN	NaN	NaN	NaN	NaN	NaN	NaN	NaN	NaN	NaN	NaN	NaN	NaN	NaN	NaN	NaN	NaN	NaN	NaN	NaN
19	0.18	-1868.87939	203.26637	241.09154	-1218.63342	617.8501	38.97532	-1139.05139	897.92615	363.34308	-1159.64783	270.9646	90.0442	-1288.49829	1039.5697	457.28552	-1291.76843	1139.45142	452.82877	-1409.89783	397.76581	320.77832	-1372.42712	575.52197	362.76712	-1245.54785	867.93604	340.04465	-1202.47791	961.54877	404.95108	-1136.13989	938.68506	330.00009	-1238.09302	1334.99646	351.78107	-1160.83313	1112.44397	202.66565	-1335.28882	1035.98193	-60.28323	-1188.60852	1284.59448	200.31709	-1283.37695	937.37787	-31.5315	-1242.69019	885.48474	111.52248	-1218.49768	1569.23462	287.47379	-1310.64258	854.49823	3.78493	-1230.81812	1330.43958	50.9147	-1598.94739	360.1792	316.22922	-1290.73987	951.65424	24.20487	-1323.26147	1495.65393	264.42462	-1217.69165	41.78925	198.13773	-1810.52625	335.0307	275.14902	-1830.68713	382.11389	223.66949	-1312.92896	1359.35132	192.12393	-1076.60559	883.90594	326.77823	-1304.12891	1502.94055	135.70137	-1331.65369	1211.00305	-69.14583	-1029.83557	34.95518	158.50665	-1366.30542	1205.63525	304.37714	-1391.99109	1122.70386	-101.97705	-1194.07629	1577.22046	156.80577	-1394.33484	929.06543	305.24863	-1400.93616	926.08185	154.51627	-1380.41406	1063.63843	224.58791	-1118.55908	469.06592	66.47006	-1182.28113	70.69073	153.37057	NaN	NaN	NaN	NaN	NaN	NaN	-1296.93213	1609.21814	195.04233	NaN	NaN	NaN	NaN	NaN	NaN	NaN	NaN	NaN	NaN	NaN	NaN	NaN	NaN	NaN	NaN	NaN	NaN	NaN	NaN	NaN	NaN	NaN	NaN
20	0.19	-1814.14148	213.18614	246.77919	-1184.85388	615.45471	37.49276	-1120.27808	871.77795	373.31912	-1137.24426	269.85413	88.24583	-1261.0249	1030.24976	455.34875	-1263.08521	1130.54651	449.63586	-1354.60364	386.80075	323.35287	-1328.46387	565.72491	364.349	-1213.00464	863.0116	339.80615	-1179.3728	942.43304	409.43857	-1113.99548	910.00708	337.07056	-1207.73718	1328.69177	352.74139	-1128.38965	1106.48547	204.25977	-1288.61475	1020.10773	-58.29695	-1154.99536	1279.04236	201.02165	-1234.33435	924.62891	-26.42807	-1212.36145	883.4444	110.5168	-1187.16504	1565.00195	287.53442	-1255.41199	841.17816	8.88079	-1195.55273	1323.07227	49.5263	-1542.41223	357.75836	319.15775	-1244.57361	938.8988	29.04418	-1290.92676	1489.78113	264.06885	-1215.25293	43.66576	198.2462	-1754.1604	343.96561	277.68826	-1774.50427	391.31509	225.64836	-1279.99463	1353.81616	190.04788	-1059.29028	850.73608	338.72467	-1271.24927	1497.06726	135.33578	-1289.27734	1195.20166	-70.76749	-1026.42114	33.64115	156.2668	-1335.74365	1200.32532	301.92374	-1345.52002	1104.90137	-102.89857	-1162.20886	1573.03149	156.73866	-1362.8385	921.38275	307.6022	-1371.1394	921.91797	156.8683	-1348.78601	1058.94446	225.36955	-1087.97717	463.97073	66.05595	-1176.06189	71.26732	153.52414	NaN	NaN	NaN	NaN	NaN	NaN	-1265.55469	1603.422	194.23987	NaN	NaN	NaN	NaN	NaN	NaN	NaN	NaN	NaN	NaN	NaN	NaN	NaN	NaN	NaN	NaN	NaN	NaN	NaN	NaN	NaN	NaN	NaN	NaN
21	0.2	-1754.91736	219.43188	252.50522	-1152.73669	611.8421	36.75246	-1103.72815	847.31445	384.32803	-1115.51428	268.04663	88.94091	-1234.00012	1020.8017	454.53253	-1235.06396	1121.34668	446.65164	-1297.58643	377.27948	325.9978	-1283.85535	555.94318	365.52704	-1182.01587	857.36377	339.58612	-1158.15063	923.36389	414.76865	-1094.54858	882.55029	345.22604	-1177.8053	1322.17395	353.93936	-1095.87695	1100.4364	206.19478	-1239.77527	1004.08057	-55.05642	-1121.17554	1273.4696	202.16406	-1183.54614	912.46875	-19.99621	-1182.14319	881.63635	109.52246	-1155.7124	1561.01709	287.51099	-1200.10474	827.81714	15.2357	-1160.33533	1315.76343	48.17892	-1483.08398	354.33713	321.61673	-1197.85742	926.2135	34.99517	-1258.53113	1484.14697	263.71228	-1214.24829	44.81094	199.54076	-1694.85596	350.51312	280.50357	-1716.47302	397.74289	228.30905	-1247.32275	1348.41736	187.63942	-1044.41406	820.65875	352.6524	-1238.32947	1491.52161	134.9386	-1246.28113	1178.61426	-71.72926	-1025.44055	33.75283	157.28531	-1305.53552	1194.54175	299.54825	-1297.73828	1086.99744	-102.90106	-1130.26672	1569.21265	156.66187	-1331.87817	913.45679	310.16605	-1341.79028	917.70508	159.68423	-1317.28113	1054.38354	226.25783	-1058.99915	458.42407	66.59406	-1173.37903	72.08924	155.24461	NaN	NaN	NaN	NaN	NaN	NaN	-1234.89246	1597.86865	193.73747	NaN	NaN	NaN	NaN	NaN	NaN	NaN	NaN	NaN	NaN	NaN	NaN	NaN	NaN	NaN	NaN	NaN	NaN	NaN	NaN	NaN	NaN	NaN	NaN
22	0.21	-1691.91467	222.30357	258.12631	-1121.77783	607.8255	36.82487	-1089.54651	825.92615	396.70007	-1101.177	263.97559	90.8037	-1208.35107	1011.17926	454.7569	-1207.88269	1113.69202	445.25339	-1238.72363	370.19714	328.60391	-1236.6698	548.31525	366.81302	-1150.93469	851.46338	338.98654	-1139.24475	905.85248	421.2699	-1077.37683	858.51837	354.72214	-1147.72314	1315.63269	355.2225	-1063.46216	1094.96545	208.18839	-1189.47571	989.27167	-50.3187	-1087.54431	1268.49402	203.46585	-1131.27356	901.52338	-11.60936	-1151.87244	879.57629	108.56995	-1124.23096	1557.41089	287.45673	-1142.06335	815.9519	22.70396	-1125.39734	1308.93726	47.06801	-1422.07349	350.79483	324.89746	-1150.0271	913.64844	42.48325	-1226.21313	1479.2594	263.32108	-1213.93896	44.45835	200.97569	-1633.56604	354.44681	283.64838	-1657.27539	401.40207	231.90546	-1214.15356	1344.03113	185.25227	-1031.27466	795.19702	367.41559	-1205.42078	1486.7074	134.60553	-1203.02881	1162.12976	-71.62021	-1025.13879	33.80896	157.97141	-1275.65466	1188.97351	297.15686	-1249.0061	1068.87537	-101.36267	-1098.27258	1565.54407	156.75352	-1301.38013	905.86066	312.41373	-1311.95715	913.39044	162.45909	-1285.73047	1050.34949	227.00304	-1032.87988	452.73346	68.3788	-1171.77026	71.81983	156.32483	NaN	NaN	NaN	NaN	NaN	NaN	-1204.0116	1592.96887	193.22432	NaN	NaN	NaN	NaN	NaN	NaN	NaN	NaN	NaN	NaN	NaN	NaN	NaN	NaN	NaN	NaN	NaN	NaN	NaN	NaN	NaN	NaN	NaN	NaN
23	0.22	-1626.45837	221.7858	263.04773	-1092.72852	603.51019	37.84109	-1077.06787	810.23572	408.02264	-1091.60449	258.9989	92.08465	-1186.74756	1003.14697	456.92892	-1182.03394	1107.98914	444.89435	-1178.75867	366.53833	330.89737	-1188.50586	544.70038	368.41785	-1118.62366	846.00806	337.54068	-1122.77161	892.81097	428.68262	-1061.80212	839.93323	365.28931	-1117.48669	1309.36938	356.29071	-1031.31262	1091.10254	210.02849	-1137.88257	976.10193	-43.72973	-1054.76001	1264.30139	204.82495	-1077.08557	892.78308	-1.39246	-1121.62183	877.76251	108.30013	-1092.39282	1554.18481	287.31235	-1082.37244	806.51953	30.92966	-1090.70898	1302.81458	46.38931	-1359.68872	347.30536	328.02072	-1100.59705	902.03162	51.52222	-1194.04407	1475.53674	263.08752	-1214.26038	43.61325	201.27556	-1571.05566	354.85483	286.99084	-1597.10571	401.90109	236.15675	-1180.78735	1340.64941	183.7175	-1019.81641	775.36664	382.21924	-1172.60181	1482.49634	134.43938	-1159.42493	1147.40735	-70.3344	-1025.32581	33.85365	158.4238	-1246.02576	1184.53381	294.63696	-1198.6969	1052.37988	-99.17758	-1065.88086	1561.85657	156.71161	-1271.06177	900.03229	313.57422	-1281.68677	910.06757	164.42831	-1254.03503	1047.08069	226.73442	-1011.51215	444.56485	70.59561	-1170.41187	70.27564	156.82011	NaN	NaN	NaN	NaN	NaN	NaN	-1172.9696	1589.03857	192.67792	NaN	NaN	NaN	NaN	NaN	NaN	NaN	NaN	NaN	NaN	NaN	NaN	NaN	NaN	NaN	NaN	NaN	NaN	NaN	NaN	NaN	NaN	NaN	NaN
